<svg xmlns="http://www.w3.org/2000/svg" viewBox="0 0 614.39 132.48" width="135px" height="29.41px" style="fill:#279ddf;stroke:#fff;stroke-linejoin:round;stroke-width:8px;">
    <path d="M484.32,48.8c-8.48,0-15.84,7.84-15.84,16.16A16.78,16.78,0,0,0,469,68.8c5.76,1.76,7.36,4,7.36,10.08,0,10.56-8.8,25.44-14.72,25.44-1.92,0-2.72-2.24-2.72-16.16a212.7,212.7,0,0,1,2.72-27.52c19.52-27.36,25.28-39.36,25.28-45.76,0-7.68-4-10.88-10.4-10.88-19.29,0-38.58,44.72-40.75,83.07-8,9.9-14.32,14.21-17,14.21-1.28,0-1.92-.48-1.92-3.68,0-4.16,2.08-14.24,7.68-34.4a42.75,42.75,0,0,0,1.76-10.56c0-5.6-5.92-13-16.8-13a7.36,7.36,0,0,0-5.6,2.08L403.36,51c-.8-.8-1.92-1.12-4.16-1.12-13.55,0-29.84,18-34.52,38.1-7.49,9.84-13.42,15.5-16,15.5-1.44,0-2.24-.64-2.24-2.4,0-4,2.24-11.68,4.32-19.36,2.24-8.16,3-11.52,3-15.84,0-6.24-4-11.2-9.6-11.2-7.52,0-13.6,5.6-25.6,22.24,3.2-6.72,4.32-11.52,4.32-15.68,0-5.28-3.52-9.44-9.6-9.44-7,0-15.68,6.24-27.36,26.4C289.76,69.6,292.8,60,292.8,56c0-4.8-3-7.36-7.68-7.36-7.36,0-14.24,11.52-17,28.48C260.64,90.56,248,105,244.64,105c-1.44,0-1.92-1-1.92-2.24,0-3.36,3.36-12,7.2-20.48,3-6.56,4-10.56,4-14.72,0-6.24-3.52-11.84-10.88-11.84-7,0-14.72,2.88-27.84,22.56,3.84-7.68,4-11.36,4-15.52,0-5.28-3.36-9.44-9.44-9.44-7,0-15.2,3.36-25.28,20.8,3.84-8.48,4.64-13.76,4.64-17.76,0-4.8-2.56-6.4-7.2-6.4-13.76,0-19.84,14.24-20.48,30.56-.23.63-.45,1.27-.67,1.91-9.66,13.27-16.91,19.21-20.45,19.21-1.28,0-2.24-.48-2.24-2.56,0-3,6.72-17.92,10.08-27,2.4-6.4,3-9.6,3-12.48,0-6.56-6.56-13-15.52-13a8.56,8.56,0,0,0-6.72,3c-.8,13.76-3,25-8.48,42.24-3.2,3.36-8.32,7.2-11,7.2-2.24,0-3.2-1.6-3.2-4.16s1-7.36,2.56-13.12c8.16-13.28,12.32-22.88,12.32-28,0-4.8-2.72-6.4-7.68-6.4-11.2,0-26.56,17.92-26.56,27.84a23.25,23.25,0,0,0,1,7.31c-9.78,13.38-25.27,22.61-37.78,22.61-13.92,0-18.24-7.52-18.24-22.72,0-27.68,17.12-58.56,25.92-58.56,3.2,0,5.44,2.72,5.44,10.08,0,3.52-1.44,14.4-4,20.48,1,1.92,2.72,2.88,6.72,2.88,11.36,0,20.8-16,20.8-30.88,0-13.6-6.4-21.6-22.24-21.6C36.64,4.8,4,49.44,4,89.44c0,25.44,12.48,39,33.92,39,16.5,0,33.6-10.83,44.88-22.22a25,25,0,0,0-.24,3.18c0,9.6,2.24,15,11.68,15,7.2,0,17-6.72,24.64-21.28a45.68,45.68,0,0,0-1,8.32c0,8.32,4,10.4,10.56,10.4,6.72,0,15.2-5.12,22.72-11.84,2-1.78,4-3.66,5.8-5.58.45,9.42,4.51,18.06,13.4,18.06a10.77,10.77,0,0,0,8.48-3.52c.48-10.88,2.08-20.64,4.32-33,4.16-5,6.4-7,8.48-7,1.28,0,1.92.8,1.92,2.24,0,1.6-1,5-1.76,8.48-1.92,7.84-3.2,14.08-3.2,19,.16,8.8,4.32,14.88,12.8,14.88,4,0,6.4-1.12,8.48-3.2a174.75,174.75,0,0,1,3-28.8c4.8-6.08,11.36-12,13.76-12a1.82,1.82,0,0,1,1.92,2.08c0,3.52-8.64,19.84-8.64,30.4,0,8.8,3.2,13,12.64,13,9,0,21.44-8.48,29.92-22.56,0,10.72,5,19.2,13.92,19.2,3.68,0,4.8-.48,6.4-2.08.48-10.88,1.76-18.72,4-31C293.12,80,295.52,78.56,297,78.56c1.28,0,1.92.48,1.92,1.92,0,1.6-1,4.32-2.24,7.84a67.63,67.63,0,0,0-4.32,21.28c.16,8.8,5.12,14.08,13.6,14.08,3.36,0,4.8-.8,6.4-2.4.48-10.88,1.92-18.72,4.16-31,5-6.08,7.52-7.84,9.6-7.84A1.7,1.7,0,0,1,328,84.32c0,3.52-3.84,19.52-3.84,27.2,0,8.8,3.2,13,12.64,13,8,0,19-8.41,27.3-17.7,2,9.47,7.76,14.34,15.09,14.34,5.6,0,13-4,18.08-18.56a48.06,48.06,0,0,0-.48,6.24c0,10.24,4.48,13.12,11.52,13.12,6.85,0,19-9.11,27.76-18.69,1.88,13.83,8.46,20,19.27,20,21,0,41.92-32.32,41.92-57C497.28,54.08,493,48.8,484.32,48.8ZM397.44,94.72c-1.92,2.4-4.16,4-6.4,4s-4.16-.64-4.16-6.56c0-12.32,7.68-25.6,15.68-30.72Z" />
    <path class="cls-1" d="M604.31,80c-9.12,13.92-23.2,23.2-34.08,23.2-6.24,0-7.68-4-7.68-11.2,21.92-5,29.76-15.36,29.76-28.8,0-11.2-6.08-16.48-17.12-16.48-14.08,0-31.59,20.29-34.71,42.1-6.55,8.36-13,13.74-16.81,13.74-1.44,0-2.24-.64-2.24-2.4,0-4,7.52-31.84,11.84-47.36,12-22.56,15.2-30.4,15.2-37.44C548.48,7.2,544.15,4,537.27,4c-12.64,0-24,13-26.88,34.56-1.44,10.88-4.32,25.92-6.24,36.32-1.28,6.72-6.4,25.28-6.4,36,0,8.32,3.36,12.32,12.64,12.32S532.07,115,541,105.67c2.49,10.9,9.57,16.89,21.85,16.89,20.8,0,47.52-25.44,47.52-37.28C610.39,82.72,608.15,80.16,604.31,80ZM571.19,63.52c1.92,0,3.2,1.92,3.2,5.28,0,4.8-1.92,9.76-10.88,11.36C564.63,69,569,63.52,571.19,63.52Z" />
</svg>